<svg xmlns="http://www.w3.org/2000/svg" xmlns:xlink="http://www.w3.org/1999/xlink" version="1.1" width="940" height="788" viewBox="0 0 940 788" xml:space="preserve">
<desc>Created with Fabric.js 3.5.0</desc>
<defs>
</defs>
<rect x="0" y="0" width="100%" height="100%" fill="#17fff8"/>
<g transform="matrix(1 0 0 1 489.864 427.5094)" style="filter: url(#SVGID_108);" id="405103">
<filter id="SVGID_108" y="-24.63%" height="149.26%" x="-27.439999999999998%" width="154.88%">
	<feGaussianBlur in="SourceAlpha" stdDeviation="17"/>
	<feOffset dx="10" dy="10" result="oBlur"/>
	<feFlood flood-color="rgb(0,0,0)" flood-opacity="1"/>
	<feComposite in2="oBlur" operator="in"/>
	<feMerge>
		<feMergeNode/>
		<feMergeNode in="SourceGraphic"/>
	</feMerge>
</filter>
		
<path xml:space="preserve" font-family="Aladin" font-size="841" font-style="normal" font-weight="normal" style="stroke: none; stroke-width: 1; stroke-dasharray: none; stroke-linecap: butt; stroke-dashoffset: 0; stroke-linejoin: miter; stroke-miterlimit: 4; is-custom-font: none; font-file-url: none; fill: rgb(194,178,76); fill-rule: nonzero; opacity: 1; white-space: pre;" d="M-70.22-114.26L-70.22-114.26L-69.38-9.13L-72.75 136.36Q-71.91 139.72-70.22 139.72Q-68.54 139.72-67.70 138.04L-67.70 138.04Q-50.88 114.49-26.07 114.49Q-1.26 114.49-1.26 124.59L-1.26 124.59Q-1.26 156.54 10.93 173.78Q23.13 191.02 45.41 191.02Q67.70 191.02 88.30 160.75Q108.91 130.47 108.91 80.01L108.91 80.01Q108.91 63.19 102.18 39.64L102.18 39.64Q88.73-7.45 51.72-23.43L51.72-23.43Q24.81-34.36-35.74-34.36L-35.74-34.36Q-42.47-34.36-42.47-43.61L-42.47-43.61Q-42.47-90.71-25.65-92.39L-25.65-92.39Q-2.94-92.39 22.29-104.17L22.29-104.17Q72.75-127.71 72.75-200.88L72.75-200.88Q72.75-279.94-18.08-279.94L-18.08-279.94L-44.15-278.25Q-59.29-274.89-60.97-265.64L-60.97-265.64L-60.97-263.12Q-70.22-229.48-70.22-114.26ZM-193.85 275.97L-193.85 275.97L-192.17 266.71Q-183.76 251.58-177.87 143.51Q-171.98 35.44-171.98-58.33Q-171.98-152.10-175.77-208.87Q-179.55-265.64-196.37-290.87L-196.37-290.87Q-199.74-295.07-199.74-300.96Q-199.74-306.85-189.65-311.05L-189.65-311.05Q-120.68-337.96-2.10-337.96L-2.10-337.96Q27.33-337.96 61.81-329.97Q96.29-321.99 118.58-310.21Q140.87-298.44 158.95-274.05Q177.03-249.66 179.55-216.02L179.55-216.02Q179.55-94.07 78.63-75.57L78.63-75.57Q73.59-73.89 73.59-71.79Q73.59-69.69 77.79-67.16L77.79-67.16Q129.93-58.75 165.26-25.11L165.26-25.11Q182.92-9.13 197.21 24.51Q211.51 58.15 211.51 101.88L211.51 101.88Q211.51 158.23 178.71 208.69L178.71 208.69Q151.80 249.89 100.50 267.56L100.50 267.56Q71.91 277.65 36.58 277.65L36.58 277.65Q-51.72 277.65-75.27 221.30L-75.27 221.30Q-76.11 218.78-77.79 218.78L-77.79 218.78L-81.16 222.14Q-98.82 281.01-182.08 283.53L-182.08 283.53Q-193.85 283.53-193.85 275.97Z"/></g>
</svg>